<?xml version="1.0" standalone="no"?><!DOCTYPE svg PUBLIC "-//W3C//DTD SVG 1.1//EN" "http://www.w3.org/Graphics/SVG/1.1/DTD/svg11.dtd"><svg t="1660305936546" class="icon" viewBox="0 0 1024 1024" version="1.1" xmlns="http://www.w3.org/2000/svg" p-id="7516" xmlns:xlink="http://www.w3.org/1999/xlink" width="200" height="200"><defs><style type="text/css">@font-face { font-family: feedback-iconfont; src: url("//at.alicdn.com/t/font_1031158_u69w8yhxdu.woff2?t=1630033759944") format("woff2"), url("//at.alicdn.com/t/font_1031158_u69w8yhxdu.woff?t=1630033759944") format("woff"), url("//at.alicdn.com/t/font_1031158_u69w8yhxdu.ttf?t=1630033759944") format("truetype"); }
</style></defs><path d="M512 62.7C264 62.7 62.7 264 62.7 512S264 961.3 512 961.3 961.3 760 961.3 512 760 62.7 512 62.7z m0 651.5c-111.9 0-202.2-90.3-202.2-202.2S400.1 309.8 512 309.8 714.2 400.1 714.2 512 623.9 714.2 512 714.2z m0-247.1c-24.7 0-44.9 20.2-44.9 44.9s20.2 44.9 44.9 44.9 44.9-20.2 44.9-44.9-20.2-44.9-44.9-44.9z" p-id="7517" fill="#ff0000"></path></svg>