<?xml version="1.0" standalone="no"?><!DOCTYPE svg PUBLIC "-//W3C//DTD SVG 1.1//EN" "http://www.w3.org/Graphics/SVG/1.1/DTD/svg11.dtd"><svg t="1661781721211" class="icon" viewBox="0 0 1024 1024" version="1.1" xmlns="http://www.w3.org/2000/svg" p-id="6842" xmlns:xlink="http://www.w3.org/1999/xlink" width="200" height="200"><path d="M213.333333 426.666667c-46.933333 0-85.333333 38.4-85.333333 85.333333s38.4 85.333333 85.333333 85.333333 85.333333-38.4 85.333334-85.333333-38.4-85.333333-85.333334-85.333333z m597.333334 0c-46.933333 0-85.333333 38.4-85.333334 85.333333s38.4 85.333333 85.333334 85.333333 85.333333-38.4 85.333333-85.333333-38.4-85.333333-85.333333-85.333333z m-298.666667 0c-46.933333 0-85.333333 38.4-85.333333 85.333333s38.4 85.333333 85.333333 85.333333 85.333333-38.4 85.333333-85.333333-38.4-85.333333-85.333333-85.333333z" p-id="6843"></path></svg>